<svg version="1.1" xmlns="http://www.w3.org/2000/svg" width="128" height="128">

<path d="M0 0 C8.91 0 17.82 0 27 0 C27.02292204 6.22970063 27.04284544 12.45925568 27.05493164 18.68896484 C27.05996872 20.80941259 27.06679859 22.92985685 27.07543945 25.05029297 C27.08753234 28.09343322 27.09323447 31.13652766 27.09765625 34.1796875 C27.10281754 35.13181122 27.10797882 36.08393494 27.11329651 37.06491089 C27.11340981 38.38605392 27.11340981 38.38605392 27.11352539 39.73388672 C27.115746 40.51110077 27.11796661 41.28831482 27.12025452 42.08908081 C27 44 27 44 26 46 C25.4870611 51.52003607 25.4870611 51.52003607 27.4375 56.5 C31.33025304 58.77868471 34.68348397 58.72981557 39 58 C45.84610457 55.92815257 52.31306029 53.38706778 58 49 C57.31292969 49.27714844 56.62585938 49.55429688 55.91796875 49.83984375 C54.56638672 50.38318359 54.56638672 50.38318359 53.1875 50.9375 C52.29417969 51.29714844 51.40085938 51.65679687 50.48046875 52.02734375 C45.47724173 53.98923907 41.34190806 54.54451787 36 54 C33.03087118 52.61019502 31.30342972 51.30342972 29 49 C28.11955663 42.72684099 29.37513928 39.28490473 33.12109375 34.2265625 C40.53648317 25.43909478 50.25949472 18.14818797 61.87109375 16.42578125 C70.89916193 16.15334215 70.89916193 16.15334215 74.3515625 18.80859375 C76.5766647 21.76660876 76.72038892 24.36505599 77 28 C77.5921804 24.98760403 78.04772336 22.07550533 78 19 C76.15014823 16.44848032 74.7804657 15.39023285 72 14 C70.46331135 13.77532169 68.92031946 13.59203195 67.375 13.4375 C66.55773437 13.35371094 65.74046875 13.26992188 64.8984375 13.18359375 C64.27195312 13.12300781 63.64546875 13.06242187 63 13 C62.4121875 11.3603125 62.4121875 11.3603125 61.8125 9.6875 C60.28102738 6.02816398 58.49488852 4.88912893 55 3 C55 2.01 55 1.02 55 0 C66.55 0 78.1 0 90 0 C90 0.99 90 1.98 90 3 C88.35666496 4.03789581 86.68756133 5.03567924 85 6 C82.70366176 9.44450737 82.45983515 11.93812283 82 16 C83.485 16.495 83.485 16.495 85 17 C85.80157857 25.65704855 82.90710798 31.58930632 77.41796875 38.2109375 C64.34816517 53.2376935 46.60109685 65.57606178 26.50390625 68.34375 C22.02430591 68.63797662 20.53886481 68.43988964 16.9375 65.5 C16.298125 64.675 15.65875 63.85 15 63 C15.27034634 65.43717258 15.27034634 65.43717258 16 68 C19.24460769 70.1630718 20.0937593 70.15893824 23.8125 70.1875 C28.46555398 70.54542723 28.46555398 70.54542723 30.77734375 72.51171875 C31.75608518 73.7500733 32.7135373 75.0055661 33.6484375 76.27734375 C35.73564857 78.937633 37.83063758 79.92241678 41 81 C46.79806287 81.56110286 51.91409063 81.03350248 57 78 C60.44015918 73.85416714 62.12463482 70.5238551 61.859375 65.15234375 C61.57583828 56.81838945 61.57583828 56.81838945 64.23828125 53.41894531 C67.36465167 50.36974479 70.85726527 47.8692872 74.38867188 45.31689453 C76.98923017 43.19152916 78.91067991 40.61927537 81 38 C81.33 38 81.66 38 82 38 C82.10007178 42.35581651 82.17202448 46.71099593 82.21972656 51.06762695 C82.23964487 52.54463378 82.26679007 54.02156384 82.30175781 55.49829102 C82.59577571 68.24915562 81.15154549 79.36563916 72 89 C63.50506111 96.65543905 53.20765169 98.34824261 42.0859375 98.2109375 C32.16870792 97.53305092 22.45849271 93.02990178 15.625 85.75 C10.35650439 79.04871238 7.90427347 70.60113994 7.82641602 62.19335938 C7.81292618 61.0253479 7.79943634 59.85733643 7.78553772 58.65393066 C7.77509933 57.39657104 7.76466095 56.13921143 7.75390625 54.84375 C7.7294044 52.86618518 7.70489132 50.88862042 7.67970943 48.91106415 C7.61899556 44.03731271 7.56819515 39.16347072 7.52319336 34.28955078 C7.49754106 31.5525227 7.46672843 28.81564249 7.43040466 26.07873535 C7.39656511 23.50127437 7.37065808 20.92369473 7.35340881 18.34606934 C7.33676682 17.17805786 7.32012482 16.01004639 7.30297852 14.80664062 C7.29267105 13.77945923 7.28236359 12.75227783 7.27174377 11.69396973 C6.99346396 8.93520408 6.53327941 7.29659908 5 5 C2.46229997 3.71745356 2.46229997 3.71745356 0 3 C0 2.01 0 1.02 0 0 Z " fill="#AB4297" transform="translate(21,18)" data-index="1" style="visibility: visible; opacity: 1;"></path>
<path d="M0 0 C11.55 0 23.1 0 35 0 C35 0.99 35 1.98 35 3 C33.35666496 4.03789581 31.68756133 5.03567924 30 6 C27.70366176 9.44450737 27.45983515 11.93812283 27 16 C27.99 16.33 28.98 16.66 30 17 C30.80157857 25.65704855 27.90710798 31.58930632 22.41796875 38.2109375 C16.22584174 45.32403556 9.26068779 52.32023634 1 57 C0.01 56.67 -0.98 56.34 -2 56 C-4.09980807 56.91377367 -4.09980807 56.91377367 -6.25 58.3125 C-13.0890538 62.27716887 -20.07056405 64.31264311 -28 63 C-31.125 60.8125 -31.125 60.8125 -33 58 C-33.3125 55.1875 -33.3125 55.1875 -33 53 C-31.86865747 54.69701379 -30.75971714 56.41106852 -29.73046875 58.171875 C-28.10273508 60.2700268 -28.10273508 60.2700268 -25.30078125 60.390625 C-24.31464844 60.34421875 -23.32851563 60.2978125 -22.3125 60.25 C-21.31863281 60.21390625 -20.32476562 60.1778125 -19.30078125 60.140625 C-18.54152344 60.09421875 -17.78226563 60.0478125 -17 60 C-16.67 59.34 -16.34 58.68 -16 58 C-13.96357803 57.14347917 -11.89455187 56.36371671 -9.8125 55.625 C-5.02803505 53.85317067 -1.03096708 52.10960318 3 49 C2.31292969 49.27714844 1.62585938 49.55429688 0.91796875 49.83984375 C-0.43361328 50.38318359 -0.43361328 50.38318359 -1.8125 50.9375 C-3.15248047 51.47697266 -3.15248047 51.47697266 -4.51953125 52.02734375 C-9.52275827 53.98923907 -13.65809194 54.54451787 -19 54 C-21.96912882 52.61019502 -23.69657028 51.30342972 -26 49 C-26.88044337 42.72684099 -25.62486072 39.28490473 -21.87890625 34.2265625 C-14.46351683 25.43909478 -4.74050528 18.14818797 6.87109375 16.42578125 C15.89916193 16.15334215 15.89916193 16.15334215 19.3515625 18.80859375 C21.5766647 21.76660876 21.72038892 24.36505599 22 28 C22.5921804 24.98760403 23.04772336 22.07550533 23 19 C21.15014823 16.44848032 19.7804657 15.39023285 17 14 C15.46331135 13.77532169 13.92031946 13.59203195 12.375 13.4375 C11.55773437 13.35371094 10.74046875 13.26992188 9.8984375 13.18359375 C9.27195313 13.12300781 8.64546875 13.06242187 8 13 C7.4121875 11.3603125 7.4121875 11.3603125 6.8125 9.6875 C5.28102738 6.02816398 3.49488852 4.88912893 0 3 C0 2.01 0 1.02 0 0 Z " fill="#A35497" transform="translate(76,18)" data-index="2" style="visibility: visible; opacity: 1;"></path>
<path d="M0 0 C8.91 0 17.82 0 27 0 C27.02292204 6.22970063 27.04284544 12.45925568 27.05493164 18.68896484 C27.05996872 20.80941259 27.06679859 22.92985685 27.07543945 25.05029297 C27.08753234 28.09343322 27.09323447 31.13652766 27.09765625 34.1796875 C27.10281754 35.13181122 27.10797882 36.08393494 27.11329651 37.06491089 C27.11340981 38.38605392 27.11340981 38.38605392 27.11352539 39.73388672 C27.115746 40.51110077 27.11796661 41.28831482 27.12025452 42.08908081 C27 44 27 44 26 46 C25.50667754 51.45564858 25.50667754 51.45564858 27.3125 56.4375 C31.58241991 58.92001157 36.13784537 58.8323395 41 59 C36.57709713 61.94860192 32.18843457 61.80001312 27 61 C24.3125 58.5 24.3125 58.5 23 56 C23.27617533 57.94074861 23.27617533 57.94074861 24 60 C28.31272127 62.87514751 31.93536518 62.58061421 37 62 C42.95382261 60.36672163 48.57614313 57.93181452 54 55 C54 55.99 54 56.98 54 58 C30.71812405 70.40567113 30.71812405 70.40567113 20 68 C16.9375 65.5 16.9375 65.5 15 63 C15.55728913 66.34373475 16.35173889 69.03312999 18 72 C16.02 73.32 14.04 74.64 12 76 C10 75 10 75 8.89648438 72.27807617 C7.39527923 66.49008615 7.68148074 60.48840648 7.65625 54.55078125 C7.63391021 52.57973325 7.61155971 50.60868529 7.58856964 48.63764477 C7.54337231 44.49745425 7.51530364 40.35711333 7.48431396 36.21679688 C7.45805858 32.7950115 7.42803617 29.37336082 7.38806152 25.95170593 C7.35897307 23.39093003 7.33858794 20.83003748 7.32775879 18.26911926 C7.31434448 17.11079086 7.30093018 15.95246246 7.28710938 14.7590332 C7.27981812 13.74090042 7.27252686 12.72276764 7.26501465 11.67378235 C6.99228098 8.92212133 6.52831708 7.29115306 5 5 C2.46229997 3.71745356 2.46229997 3.71745356 0 3 C0 2.01 0 1.02 0 0 Z " fill="#5B256C" transform="translate(21,18)" data-index="3" style="visibility: visible; opacity: 1;"></path>

<path d="M0 0 C2.618498 2.01879664 2.95738395 2.76324414 3.5625 6.125 C2.65599131 12.36983764 -0.3686521 16.83029208 -5.2265625 20.8359375 C-11.84965885 25.3768564 -17.84730899 28.20160931 -26 27 C-28.5625 25.4375 -28.5625 25.4375 -30 23 C-30.60249796 18.93313876 -30.34159546 16.68319092 -28.5 13 C-21.26614203 4.31937044 -11.9494542 -2.44747857 0 0 Z " fill="#9D4990" transform="translate(86,40)" data-index="5" style="visibility: visible; opacity: 1; stroke-width: 2px; stroke: rgb(13, 153, 255);"></path>
<path d="M0 0 C11.55 0 23.1 0 35 0 C35 0.99 35 1.98 35 3 C33.35666496 4.03789581 31.68756133 5.03567924 30 6 C27.70366176 9.44450737 27.45983515 11.93812283 27 16 C27.99 16.33 28.98 16.66 30 17 C30.79831773 25.62183151 27.88946083 31.30527959 22.6171875 38.046875 C15.24531277 46.54103513 15.24531277 46.54103513 10 47 C9.505 45.515 9.505 45.515 9 44 C10.328125 41.84375 10.328125 41.84375 12.25 39.5 C12.87390625 38.7265625 13.4978125 37.953125 14.140625 37.15625 C17.309 33.482 17.309 33.482 19 32 C19.66 32 20.32 32 21 32 C22.41803143 27.56865177 23.62641646 23.69812348 23 19 C20.6120898 16.05491075 18.64079334 14.23989939 14.8359375 13.68359375 C13.61777344 13.56177734 13.61777344 13.56177734 12.375 13.4375 C11.55773437 13.35371094 10.74046875 13.26992188 9.8984375 13.18359375 C9.27195312 13.12300781 8.64546875 13.06242187 8 13 C7.4121875 11.3603125 7.4121875 11.3603125 6.8125 9.6875 C5.28102738 6.02816398 3.49488852 4.88912893 0 3 C0 2.01 0 1.02 0 0 Z " fill="#82337D" transform="translate(76,18)" data-index="6" style="visibility: visible; opacity: 1;"></path>
<path d="M0 0 C2.49458136 1.87503895 3.77706547 2.99868391 4.4609375 6.0703125 C4.22222222 11.77777778 4.22222222 11.77777778 2 14 C1.34 11.03 0.68 8.06 0 5 C-1.98 4.67 -3.96 4.34 -6 4 C-6 4.33 -6 4.66 -6 5 C-6.99 5.08636719 -7.98 5.17273437 -9 5.26171875 C-18.96326046 6.26473155 -25.64169878 8.03025919 -32.4375 15.6875 C-35.83502475 19.86265985 -36.3858166 22.50211341 -36 28 C-35.06402685 30.01951062 -35.06402685 30.01951062 -33 31 C-29.38976901 31.73041853 -29.38976901 31.73041853 -26 32 C-28.75167397 33.8711383 -30.16177901 33.99432354 -33.5625 33.875 C-37 33 -37 33 -38.9375 30.9375 C-39.288125 30.298125 -39.63875 29.65875 -40 29 C-39.5748108 31.02965198 -39.5748108 31.02965198 -38 33 C-35.34822355 33.98494554 -32.79452693 34.45912382 -30 35 C-30 35.33 -30 35.66 -30 36 C-37.95467422 36.61189802 -37.95467422 36.61189802 -41.5625 34.5 C-43.62471636 30.91353677 -43.90304687 27.95520528 -43 24 C-38.01518831 13.22152039 -28.15476562 6.24654731 -17.71484375 1.29296875 C-11.88885822 -0.73479277 -6.05846683 -1.30281015 0 0 Z " fill="#7D397C" transform="translate(93,35)" data-index="7" style="visibility: visible; opacity: 1;"></path>
<path d="M0 0 C2.618498 2.01879664 2.95738395 2.76324414 3.5625 6.125 C2.65599131 12.36983764 -0.3686521 16.83029208 -5.2265625 20.8359375 C-11.84965885 25.3768564 -17.84730899 28.20160931 -26 27 C-28.5625 25.4375 -28.5625 25.4375 -30 23 C-30.60249796 18.93313876 -30.34159546 16.68319092 -28.5 13 C-21.26614203 4.31937044 -11.9494542 -2.44747857 0 0 Z M-25.375 12.8125 C-27.38240494 16.750102 -27.15573108 18.7898368 -26 23 C-22.6954436 24.6522782 -19.55715275 24.62426853 -16 24 C-10.48323729 21.53892921 -5.01657679 18.37737602 -2 13 C-1.19777849 9.310252 -1.19777849 9.310252 -1 6 C-3.30046108 3.87649747 -4.67461176 3.0433851 -7.8125 2.625 C-15.30828397 3.50685694 -20.60622006 7.1652606 -25.375 12.8125 Z " fill="#F6EEF5" transform="translate(86,40)" data-index="8" style="visibility: visible; opacity: 1;"></path>

<path d="M0 0 C1 1 1 1 1 4.3125 C0 8 0 8 -3.125 10.4375 C-6.78102939 12.20508446 -9.9452319 12.40547681 -14 12 C-14.33 11.67 -14.66 11.34 -15 11 C-14.84916617 7.00290361 -14.56737418 4.69148728 -12 1.5625 C-7.98283621 -0.5297728 -4.45602067 -0.56160591 0 0 Z " fill="#F0E2EF" transform="translate(79,48)" data-index="10" style="visibility: visible; opacity: 1;"></path>
<path d="M0 0 C-1.57959653 1.29623379 -3.16383413 2.58681327 -4.75 3.875 C-5.63171875 4.59429687 -6.5134375 5.31359375 -7.421875 6.0546875 C-9.59530696 7.6946407 -11.45975851 9.03912604 -14 10 C-14.66 9.67 -15.32 9.34 -16 9 C-18.01428536 9.93340354 -18.01428536 9.93340354 -20.1875 11.3125 C-27.05992405 15.25210614 -34.0506325 17.31594259 -42 16 C-45.125 13.8125 -45.125 13.8125 -47 11 C-47.3125 8.1875 -47.3125 8.1875 -47 6 C-45.86865747 7.69701379 -44.75971714 9.41106852 -43.73046875 11.171875 C-42.10273508 13.2700268 -42.10273508 13.2700268 -39.30078125 13.390625 C-38.31464844 13.34421875 -37.32851563 13.2978125 -36.3125 13.25 C-34.82169922 13.19585937 -34.82169922 13.19585937 -33.30078125 13.140625 C-32.54152344 13.09421875 -31.78226563 13.0478125 -31 13 C-30.67 12.34 -30.34 11.68 -30 11 C-28.02672465 10.16311983 -26.019695 9.40514625 -24 8.6875 C-19.00370782 6.835804 -14.46686558 4.74472782 -9.8671875 2.07421875 C-3.96469685 -1.32156562 -3.96469685 -1.32156562 0 0 Z " fill="#9A448D" transform="translate(90,65)" data-index="11" style="visibility: visible; opacity: 1;"></path>
<path d="M0 0 C0.66 0.66 1.32 1.32 2 2 C-5.30446429 7.01286765 -13.96744691 12 -23 12 C-23 11.34 -23 10.68 -23 10 C-23.66 9.34 -24.32 8.68 -25 8 C-24.24976563 7.90203125 -23.49953125 7.8040625 -22.7265625 7.703125 C-14.48392053 6.4989103 -6.99495593 4.66330396 0 0 Z " fill="#964C8D" transform="translate(74,73)" data-index="12" style="visibility: visible; opacity: 1;"></path>
<path d="M0 0 C9.89914663 -0.61442979 9.89914663 -0.61442979 13.6875 1.5 C15.64590514 5.2302955 15.40579125 7.80682376 15 12 C14.34 12.66 13.68 13.32 13 14 C12.34 11.03 11.68 8.06 11 5 C7.7 4.34 4.4 3.68 1 3 C0.67 2.01 0.34 1.02 0 0 Z " fill="#85347F" transform="translate(82,35)" data-index="13" style="visibility: visible;"></path>
<path d="M0 0 C2.0625 0.4375 2.0625 0.4375 4 1 C3.63118644 7.14689273 2.09949571 9.69027374 -2 14 C-2.99 13.34 -3.98 12.68 -5 12 C-4.505 11.608125 -4.01 11.21625 -3.5 10.8125 C-1.54406857 8.44908285 -1.75792027 6.98564997 -2 4 C-4.97 3.505 -4.97 3.505 -8 3 C-8 2.67 -8 2.34 -8 2 C-6.865625 1.855625 -5.73125 1.71125 -4.5625 1.5625 C-1.19222799 1.38828522 -1.19222799 1.38828522 0 0 Z " fill="#AA5A9B" transform="translate(81,45)" data-index="14" style="visibility: visible; opacity: 1;"></path>
<path d="M0 0 C-0.33 1.32 -0.66 2.64 -1 4 C0.98 3.34 2.96 2.68 5 2 C5 2.99 5 3.98 5 5 C1.33513904 7.91033076 -1.39374606 8.32136655 -6 8 C-6.75 6.25 -6.75 6.25 -7 4 C-4.66754091 1.00112403 -3.88153854 0 0 0 Z " fill="#A14E93" transform="translate(73,50)" data-index="15" style="visibility: visible; opacity: 1;"></path>
<path d="M0 0 C0.66 0.66 1.32 1.32 2 2 C1.95875 3.27875 1.9175 4.5575 1.875 5.875 C1.83858286 8.74154913 1.91821566 9.84811481 3.3125 12.4375 C7.58241991 14.92001157 12.13784537 14.8323395 17 15 C12.56221326 17.95852449 8.20369554 17.77236261 3 17 C-0.06003974 14.37710879 -1.40998644 11.9825915 -2 8 C-1.34 8 -0.68 8 0 8 C0 5.36 0 2.72 0 0 Z " fill="#7F3E7E" transform="translate(45,62)" data-index="16" style="visibility: visible; opacity: 1;"></path>

<path d="M0 0 C1.485 0.99 1.485 0.99 3 2 C3.1875 5.625 3.1875 5.625 3 9 C4.11375 9.103125 5.2275 9.20625 6.375 9.3125 C8.169375 9.6528125 8.169375 9.6528125 10 10 C10.99 11.485 10.99 11.485 12 13 C4.00819672 13.6147541 4.00819672 13.6147541 0.4375 11.4375 C-1.50642431 8.14128053 -1.34834811 5.7621596 -1 2 C-0.67 1.34 -0.34 0.68 0 0 Z " fill="#F0E4EE" transform="translate(57,54)" data-index="18" style="visibility: hidden; opacity: 1;"></path>
<path d="M0 0 C2.1640625 -0.29296875 2.1640625 -0.29296875 4.625 -0.1875 C5.44226563 -0.16042969 6.25953125 -0.13335937 7.1015625 -0.10546875 C8.04128906 -0.05326172 8.04128906 -0.05326172 9 0 C9.33 1.65 9.66 3.3 10 5 C7.36 5.33 4.72 5.66 2 6 C2.33 4.68 2.66 3.36 3 2 C1.35 2.33 -0.3 2.66 -2 3 C-1.34 2.01 -0.68 1.02 0 0 Z " fill="#F8F2F7" transform="translate(70,48)" data-index="19" style="visibility: visible; opacity: 1;"></path>
<path d="M0 0 C1.8125 0.0625 1.8125 0.0625 4 1 C5.06902939 3.30252483 6.07175817 5.6372026 7 8 C7.66 8.33 8.32 8.66 9 9 C8.67 9.66 8.34 10.32 8 11 C7.34 11 6.68 11 6 11 C5.67 11.99 5.34 12.98 5 14 C4.01 14.33 3.02 14.66 2 15 C2.165 14.484375 2.33 13.96875 2.5 13.4375 C3.38551456 9.12061652 3.86519222 5.40593736 1.5 1.5625 C1.005 1.046875 0.51 0.53125 0 0 Z " fill="#C392BC" transform="translate(89,39)" data-index="20" style="visibility: visible; opacity: 1;"></path>
<path d="M0 0 C0.268125 0.598125 0.53625 1.19625 0.8125 1.8125 C2.0728941 4.1342786 2.85873791 5.4494309 5 7 C8.61023099 7.73041853 8.61023099 7.73041853 12 8 C9.27075574 9.8558861 7.80802824 9.99663207 4.4375 9.9375 C1 9 1 9 -0.9375 6.4375 C-1.288125 5.633125 -1.63875 4.82875 -2 4 C-1.34 4 -0.68 4 0 4 C0 2.68 0 1.36 0 0 Z " fill="#914187" transform="translate(55,59)" data-index="21" style="visibility: visible; opacity: 1;"></path>
<path d="M0 0 C0 0.99 0 1.98 0 3 C-2.99640457 5.88731217 -6.33285033 6.9527463 -10.25 8.1875 C-11.32765625 8.53167969 -12.4053125 8.87585938 -13.515625 9.23046875 C-14.33546875 9.48441406 -15.1553125 9.73835938 -16 10 C-16.66 9.34 -17.32 8.68 -18 8 C-17.11957031 7.67386719 -16.23914062 7.34773438 -15.33203125 7.01171875 C-14.17058594 6.57472656 -13.00914063 6.13773437 -11.8125 5.6875 C-10.66394531 5.25824219 -9.51539062 4.82898438 -8.33203125 4.38671875 C-5.34143023 3.14209582 -2.71992131 1.74669146 0 0 Z " fill="#AA6EA1" transform="translate(78,68)" data-index="22" style="visibility: visible; opacity: 1;"></path>
<path d="M0 0 C0.33 0.99 0.66 1.98 1 3 C-2.81495577 6.39717963 -6.48954059 9.53974941 -11 12 C-9.49650623 8.33213607 -7.36271208 6.31089607 -4.375 3.75 C-3.14910156 2.69039062 -3.14910156 2.69039062 -1.8984375 1.609375 C-1.27195312 1.07828125 -0.64546875 0.5471875 0 0 Z " fill="#804B81" transform="translate(65,42)" data-index="23" style="visibility: visible; opacity: 1;"></path>
<path d="M0 0 C0.33 1.32 0.66 2.64 1 4 C-0.8871875 3.7525 -0.8871875 3.7525 -2.8125 3.5 C-5.26456585 3.17841759 -7.51650694 3 -10 3 C-9.67 2.01 -9.34 1.02 -9 0 C-5.93109813 -1.53445094 -3.29905734 -0.54984289 0 0 Z " fill="#E5D8E5" transform="translate(101,23)" data-index="24" style="visibility: visible; opacity: 1;"></path>
<path d="M0 0 C3.3 0 6.6 0 10 0 C10.33 0.66 10.66 1.32 11 2 C7.62902617 3.49821059 5.79557881 4 2 4 C2 3.34 2 2.68 2 2 C1.34 1.34 0.68 0.68 0 0 Z " fill="#80387D" transform="translate(49,81)" data-index="25" style="visibility: visible;"></path>
<path d="M0 0 C0.66 0.33 1.32 0.66 2 1 C2 1.66 2 2.32 2 3 C2.99 3.33 3.98 3.66 5 4 C4.01 4.33 3.02 4.66 2 5 C2 5.99 2 6.98 2 8 C1.34 8 0.68 8 0 8 C0 7.01 0 6.02 0 5 C-0.99 5 -1.98 5 -3 5 C-3 3 -3 3 -1.5 1.375 C-1.005 0.92125 -0.51 0.4675 0 0 Z " fill="#8A5A8E" transform="translate(56,36)" data-index="26" style="visibility: visible;"></path>
<path d="M0 0 C2.49361571 1.20381448 4.68143083 2.45428722 7 4 C8.9896995 4.39013716 10.99019869 4.73202649 13 5 C13 5.33 13 5.66 13 6 C4.85614849 6.62645012 4.85614849 6.62645012 1.4375 4.125 C0 2 0 2 0 0 Z " fill="#8C4686" transform="translate(50,65)" data-index="27" style="visibility: visible; opacity: 1;"></path>
<path d="M0 0 C0 0.99 0 1.98 0 3 C-0.804375 3.763125 -1.60875 4.52625 -2.4375 5.3125 C-5.31405517 8.32937493 -5.71555086 9.92289563 -6 14 C-6.33 14 -6.66 14 -7 14 C-7.61658031 8.89119171 -7.61658031 8.89119171 -7 6 C-4.96073101 3.55696597 -2.63153386 1.7722575 0 0 Z " fill="#B670A9" transform="translate(91,67)" data-index="28" style="visibility: visible; opacity: 1;"></path>
<path d="M0 0 C0.1953125 6.0546875 0.1953125 6.0546875 0 8 C-0.66 8.66 -1.32 9.32 -2 10 C-2.66 7.36 -3.32 4.72 -4 2 C-1 0 -1 0 0 0 Z " fill="#96438B" transform="translate(97,39)" data-index="29" style="visibility: visible;"></path>
<path d="M0 0 C2.31 0 4.62 0 7 0 C6.34 1.32 5.68 2.64 5 4 C3.35 3.67 1.7 3.34 0 3 C0 2.01 0 1.02 0 0 Z " fill="#632569" transform="translate(76,18)" data-index="30" style="visibility: visible;"></path>
<path d="M0 0 C2.97 0 5.94 0 9 0 C5.93882432 2.62386487 5.26826873 3 1 3 C0.67 2.01 0.34 1.02 0 0 Z " fill="#782B76" transform="translate(82,35)" data-index="31" style="visibility: visible;"></path>
<path d="M0 0 C0.99 0 1.98 0 3 0 C3 0.99 3 1.98 3 3 C2.01 3 1.02 3 0 3 C0 3.66 0 4.32 0 5 C-0.99 5 -1.98 5 -3 5 C-3 4.01 -3 3.02 -3 2 C-2.01 2 -1.02 2 0 2 C0 1.34 0 0.68 0 0 Z " fill="#AE67A1" transform="translate(71,82)" data-index="32" style="visibility: visible; opacity: 1;"></path>

<path d="M0 0 C2.475 0.495 2.475 0.495 5 1 C4.67 1.99 4.34 2.98 4 4 C2.68 4 1.36 4 0 4 C0 2.68 0 1.36 0 0 Z " fill="#7B3F7E" transform="translate(73,29)" data-index="34" style="visibility: visible;"></path>
<path d="M0 0 C0.66 0.66 1.32 1.32 2 2 C0.47793991 4.62901288 -0.84365964 6.84365964 -3 9 C-2.25 2.25 -2.25 2.25 0 0 Z " fill="#EAD5E7" transform="translate(67,50)" data-index="35" style="visibility: visible; opacity: 1;"></path>
<path d="M0 0 C-0.33 0.66 -0.66 1.32 -1 2 C-3.4375 2.75 -3.4375 2.75 -6 3 C-6.66 2.34 -7.32 1.68 -8 1 C-4.93251126 -0.86240388 -3.40254489 -1.2151946 0 0 Z " fill="#EADDE9" transform="translate(76,42)" data-index="36" style="visibility: visible; opacity: 1;"></path>
</svg>